<?xml version="1.0" encoding="UTF-8"?>
<!DOCTYPE svg PUBLIC "-//W3C//DTD SVG 1.1//EN" "http://www.w3.org/Graphics/SVG/1.1/DTD/svg11.dtd">
<!-- Creator: CorelDRAW -->
<svg xmlns="http://www.w3.org/2000/svg" xml:space="preserve" width="91.579mm" height="91.882mm" version="1.1" style="shape-rendering:geometricPrecision; text-rendering:geometricPrecision; image-rendering:optimizeQuality; fill-rule:evenodd; clip-rule:evenodd"
viewBox="0 0 1426.72 1431.44"
 xmlns:xlink="http://www.w3.org/1999/xlink"
 xmlns:xodm="http://www.corel.com/coreldraw/odm/2003">
 <defs>
  <style type="text/css">
   <![CDATA[
    .fil0 {fill:#FEFEFE;fill-opacity:0.741176}
   ]]>
  </style>
 </defs>
 <g id="Camada_x0020_1">
  <metadata id="CorelCorpID_0Corel-Layer"/>
  <path class="fil0" d="M713.36 0c-381.26,0 -692.75,299.17 -713.36,675.94l373.58 0c19.68,-170.51 164.28,-302.91 339.77,-302.91 175.49,0 320.1,132.39 339.77,302.91l373.58 0c-20.61,-376.77 -332.09,-675.94 -713.36,-675.94zm0 460.83c-140.53,0 -254.45,114.12 -254.45,254.89 0,140.77 113.92,254.89 254.45,254.89 140.53,0 254.45,-114.12 254.45,-254.89 0,-140.77 -113.92,-254.89 -254.45,-254.89zm0 144.07c-61.1,0 -110.63,49.62 -110.63,110.82 0,61.2 49.53,110.82 110.63,110.82 61.1,0 110.63,-49.62 110.63,-110.82 0,-61.2 -49.53,-110.82 -110.63,-110.82zm-713.11 154.45c22.51,374.96 333.15,672.09 713.11,672.09 379.96,0 690.6,-297.13 713.11,-672.09l-373.78 0c-21.39,168.65 -165.16,299.05 -339.34,299.05 -174.17,0 -317.94,-130.4 -339.34,-299.05l-373.78 0z"/>
 </g>
</svg>
